<svg xmlns="http://www.w3.org/2000/svg"  viewBox="0 0 24 24" width="24px" height="24px"><path fill="#29B6F6" d="M1.4093018,0.2120361C1.1680298,0.3933716,1.0002441,0.6726074,1,0.994751v22.0050049 c0,0.3267822,0.1679077,0.6038818,0.4111328,0.786499L13.7490845,12L1.4093018,0.2120361z"/><linearGradient id="o-CuFFbV9_uY9Uh-A9QCta" x1="7.375" x2="7.375" y1="2.093" y2="18.003" gradientUnits="userSpaceOnUse"><stop offset="0" stop-color="#00b8d4" stop-opacity="0"/><stop offset="1" stop-color="#fff" stop-opacity=".3"/></linearGradient><path fill="url(#o-CuFFbV9_uY9Uh-A9QCta)" d="M1.4093018,0.2120361C1.1680298,0.3933716,1.0002441,0.6726074,1,0.994751v22.0050049 c0,0.3267822,0.1679077,0.6038818,0.4111328,0.786499L13.7490845,12L1.4093018,0.2120361z"/><path fill="#00E676" d="M17.5494995,8.3695068c-5.0568848-2.8088989-11.3386841-6.25-15.0861206-8.2548218 c-0.3655396-0.1949463-0.763916-0.1207886-1.0540771,0.0973511L13.7490845,12L17.5494995,8.3695068z"/><linearGradient id="o-CuFFbV9_uY9Uh-A9QCtb" x1=".367" x2="16.749" y1="2.448" y2="10.087" gradientUnits="userSpaceOnUse"><stop offset="0" stop-color="#fff" stop-opacity=".2"/><stop offset="1" stop-color="#fff" stop-opacity="0"/></linearGradient><path fill="url(#o-CuFFbV9_uY9Uh-A9QCtb)" d="M17.5494995,8.3695068c-5.0568848-2.8088989-11.3386841-6.25-15.0861206-8.2548218 c-0.3655396-0.1949463-0.763916-0.1207886-1.0540771,0.0973511L13.7490845,12L17.5494995,8.3695068z"/><path fill="#F44336" d="M1.4111328,23.7862549C1.5782471,23.9118042,1.7754517,24,2,24 c0.1582031,0,0.3139648-0.0405273,0.4628906-0.1201782c3.7469482-2.0043335,10.0269165-5.4443359,15.0831299-8.2526855 L13.7490845,12L1.4111328,23.7862549z"/><linearGradient id="o-CuFFbV9_uY9Uh-A9QCtc" x1="7.485" x2="11.473" y1="17.713" y2="21.701" gradientUnits="userSpaceOnUse"><stop offset="0" stop-opacity=".1"/><stop offset="1" stop-opacity="0"/></linearGradient><path fill="url(#o-CuFFbV9_uY9Uh-A9QCtc)" d="M1.4111328,23.7862549C1.5782471,23.9118042,1.7754517,24,2,24 c0.1582031,0,0.3139648-0.0405273,0.4628906-0.1201782c3.7469482-2.0043335,10.0269165-5.4443359,15.0831299-8.2526855 L13.7490845,12L1.4111328,23.7862549z"/><path fill="#FFEA00" d="M22.4912109,11.1352539c-1.3459473-0.7620239-3.0617065-1.7214966-4.9417114-2.7657471L13.7490845,12 l3.796936,3.6271362c1.8814087-1.0449219,3.5983887-2.0050049,4.9451904-2.767395 C22.8051758,12.6820068,23,12.3518066,23,11.9972534S22.8051758,11.3125,22.4912109,11.1352539z"/><linearGradient id="o-CuFFbV9_uY9Uh-A9QCtd" x1="16.164" x2="20.991" y1="9.585" y2="14.412" gradientUnits="userSpaceOnUse"><stop offset="0" stop-opacity=".05"/><stop offset="1" stop-opacity="0"/></linearGradient><path fill="url(#o-CuFFbV9_uY9Uh-A9QCtd)" d="M22.4912109,11.1352539c-1.3459473-0.7620239-3.0617065-1.7214966-4.9417114-2.7657471 L13.7490845,12l3.796936,3.6271362c1.8814087-1.0449219,3.5983887-2.0050049,4.9451904-2.767395 C22.8051758,12.6820068,23,12.3518066,23,11.9972534S22.8051758,11.3125,22.4912109,11.1352539z"/><path fill="#FFF" d="M2.3919678,0.3646851C7.571106,3.1148071,17.5662842,8.5735474,22.5697632,11.3852539 c0.1826782,0.102356,0.3187256,0.2587891,0.4066162,0.4384766c-0.0525513-0.2854614-0.2237549-0.5408936-0.4851685-0.6884766 C17.5249023,8.3235474,7.6040039,2.8648071,2.4633789,0.1146851c-0.6147461-0.3278809-1.326355,0.0926514-1.4401245,0.7126465 C1.2579956,0.354187,1.8607178,0.0834351,2.3919678,0.3646851z" opacity=".2"/><path d="M2.3919678,23.6353149c5.1791382-2.7501221,15.1743164-8.2088623,20.1777954-11.0205688 c0.1826782-0.102356,0.3187256-0.2587891,0.4066162-0.4384766c-0.0525513,0.2854614-0.2237549,0.5408936-0.4851685,0.6884766 c-4.9663086,2.8117065-14.887207,8.2704468-20.027832,11.0205688c-0.6147461,0.3278809-1.326355-0.0926514-1.4401245-0.7126465 C1.2579956,23.645813,1.8607178,23.9165649,2.3919678,23.6353149z" opacity=".1"/><linearGradient id="o-CuFFbV9_uY9Uh-A9QCte" x1="-3.112" x2="19.333" y1="9.609" y2="20.075" gradientUnits="userSpaceOnUse"><stop offset="0" stop-color="#fff" stop-opacity=".2"/><stop offset="1" stop-color="#fff" stop-opacity="0"/></linearGradient><path fill="url(#o-CuFFbV9_uY9Uh-A9QCte)" d="M22.4912109,11.1342297c-1.3459473-0.762085-16.2803955-9.0164652-20.027832-11.0214472 c-0.3655396-0.1949618-0.763916-0.1207982-1.0540771,0.0973588C1.1680298,0.3914915,1.0002441,0.6707495,1,0.9929188v22.0067577 c0,0.3268089,0.1679077,0.6039295,0.4111328,0.786562C1.5782471,23.9117966,1.7754517,24,2,24 c0.1582031,0,0.3139648-0.0405312,0.4628906-0.1201878c3.7469482-2.0044937,18.6815186-10.2585077,20.0283203-11.0209579 C22.8051758,12.6811056,23,12.3508787,23,11.9962978C23,11.641716,22.8051758,11.3114891,22.4912109,11.1342297z"/></svg>